HIERARCHY
ROOT hip
{
	OFFSET 0.000000 0.000000 0.000000 
	CHANNELS 6 Xposition Yposition Zposition Xrotation Zrotation Yrotation
	JOINT abdomen
	{
		OFFSET 0.000000 3.402643 0.000000 
		CHANNELS 3 Xrotation Zrotation Yrotation
		JOINT chest
		{
			OFFSET 0.000000 8.438565 -0.680529 
			CHANNELS 3 Xrotation Zrotation Yrotation
			JOINT neck
			{
				OFFSET 0.000000 10.207942 -0.272212 
				CHANNELS 3 Xrotation Zrotation Yrotation
				JOINT head
				{
					OFFSET 0.000000 3.130431 0.000000 
					CHANNELS 3 Xrotation Zrotation Yrotation
					End Site
					{
						OFFSET 0.000000 3.130435 0.000000 
					}
				}
			}
			JOINT lCollar
			{
				OFFSET 3.470700 6.669187 -0.816635 
				CHANNELS 3 Yrotation Zrotation Xrotation
				JOINT lShldr
				{
					OFFSET 3.198488 0.000000 0.000000 
					CHANNELS 3 Zrotation Yrotation Xrotation
					JOINT lForeArm
					{
						OFFSET 10.139888 0.000000 0.000000 
						CHANNELS 3 Yrotation Zrotation Xrotation
						JOINT lHand
						{
							OFFSET 8.370511 0.000000 0.000000 
							CHANNELS 3 Zrotation Yrotation Xrotation
							End Site
							{
								OFFSET 4.083176 0.000000 0.000000 
							}
						}
					}
				}
			}
			JOINT rCollar
			{
				OFFSET -3.470700 6.669187 -0.816635 
				CHANNELS 3 Yrotation Zrotation Xrotation
				JOINT rShldr
				{
					OFFSET -3.198488 0.000000 0.000000 
					CHANNELS 3 Zrotation Yrotation Xrotation
					JOINT rForeArm
					{
						OFFSET -10.139888 0.000000 0.000000 
						CHANNELS 3 Yrotation Zrotation Xrotation
						JOINT rHand
						{
							OFFSET -8.370511 0.000000 0.000000 
							CHANNELS 3 Zrotation Yrotation Xrotation
							End Site
							{
								OFFSET -4.083176 0.000000 0.000000 
							}
						}
					}
				}
			}
		}
	}
	JOINT lThigh
	{
		OFFSET 5.308129 -1.633274 1.361059 
		CHANNELS 3 Xrotation Zrotation Yrotation
		JOINT lShin
		{
			OFFSET -2.041588 -20.007561 0.000000 
			CHANNELS 3 Xrotation Zrotation Yrotation
			JOINT lFoot
			{
				OFFSET 0.000000 -19.190928 -1.224953 
				CHANNELS 3 Xrotation Yrotation Zrotation
				End Site
				{
					OFFSET 0.000000 -2.449906 4.627600 
				}
			}
		}
	}
	JOINT rThigh
	{
		OFFSET -5.308129 -1.633274 1.361059 
		CHANNELS 3 Xrotation Zrotation Yrotation
		JOINT rShin
		{
			OFFSET 2.041588 -20.007561 0.000000 
			CHANNELS 3 Xrotation Zrotation Yrotation
			JOINT rFoot
			{
				OFFSET 0.000000 -19.190928 -1.224953 
				CHANNELS 3 Xrotation Yrotation Zrotation
				End Site
				{
					OFFSET 0.000000 -2.449906 4.627600 
				}
			}
		}
	}
}
MOTION
Frames: 13
Frame Time: 0.033333
0.729264 38.230907 -0.405743 3.254643 -5.011477 1.003830 0.000000 0.000000 0.000000 18.252054 7.377481 7.474924 -5.456787 3.079895 0.215680 -14.726377 -7.207688 -4.169461 -7.912467 28.256016 25.000000 -93.531807 -17.297153 0.162977 -53.422470 -5.781837 87.627495 -21.065775 -9.007456 -53.962379 -16.123093 -14.892288 20.006031 59.332268 6.074215 64.805412 70.729721 -47.851448 66.413246 37.698277 8.505429 -79.479347 -51.465401 7.925989 12.571404 127.956940 22.512598 2.486290 36.422623 -7.796505 -25.590305 -25.814249 3.562766 3.168920 76.557320 11.583792 8.643558 -27.943819 -9.766601 7.683937 
0.892768 39.593651 -0.411718 9.094917 -3.037571 1.476514 0.000000 0.000000 0.000000 10.677791 5.115434 7.301554 -4.149710 3.872169 0.276297 -12.505202 -6.928871 -5.635011 -4.989678 30.000000 25.000000 -97.438736 -15.442019 2.077398 -56.543190 -11.033657 92.123268 -22.473078 -9.101584 -53.470898 -17.021446 -19.767620 18.205641 60.221375 2.055717 65.976624 75.121948 -44.430775 65.528847 37.362404 6.666100 -79.712837 -58.368549 7.314667 10.648369 129.776169 18.496283 1.605042 32.152252 -4.592045 -12.910150 -28.986712 1.708262 2.759873 70.749573 9.915625 7.767998 -19.814747 -10.571641 14.703927 
1.075772 41.287170 -0.243436 12.648445 -1.000512 1.357378 0.000000 0.000000 0.000000 5.524898 2.945262 6.974339 -2.349712 4.178006 0.295495 -10.959801 -6.472383 -5.684900 -2.683204 30.000000 25.000000 -97.867172 -12.891844 2.306566 -57.926918 -14.770564 92.865211 -23.397371 -8.230996 -53.669792 -17.134848 -22.367603 17.340227 60.120289 -0.056479 66.241226 78.108421 -41.713875 66.576065 37.154182 4.974421 -79.837280 -60.982285 7.294094 9.955755 130.527786 15.423851 0.954328 31.380198 -6.865683 -17.673416 -26.918531 2.118440 2.781807 60.424034 5.005679 5.723573 -9.599662 -12.348149 21.489454 
1.377400 43.461330 0.163937 14.136422 1.590968 1.299195 0.000000 0.000000 0.000000 2.246244 0.663552 6.549575 0.225319 4.202490 0.297026 -9.854632 -6.635769 -5.467045 -1.643872 30.000000 25.000000 -96.525047 -10.369170 1.670210 -58.056866 -16.563894 92.521561 -23.290464 -7.221458 -54.262455 -17.040144 -22.843912 17.229727 59.086819 -1.098405 65.737755 79.774246 -40.056492 69.111473 37.292824 4.839126 -79.747635 -59.472450 6.484753 10.120375 129.714218 12.336089 0.197555 29.083342 -6.484722 -15.220163 -20.399273 0.332121 1.960357 45.865234 1.887451 3.635487 3.492577 -11.110351 26.046434 
1.547960 45.819153 0.293050 19.389761 2.192526 0.322399 0.000000 0.000000 0.000000 -4.853803 0.622759 6.656105 2.896664 3.696929 0.254246 -8.590254 -6.766675 -4.553323 0.626780 30.000000 23.977839 -95.816505 -7.194134 1.365474 -58.184956 -18.470369 91.493576 -23.120544 -7.626661 -54.217541 -17.103893 -24.101894 16.809263 58.953075 -2.286051 65.818451 82.626564 -39.791618 72.383736 38.701267 6.385319 -79.706055 -62.707142 7.517418 9.560187 129.247177 10.453578 -0.239033 26.016071 -6.671068 -12.665686 -21.307211 1.044712 2.198301 34.642994 -1.075774 1.894806 19.956577 -9.714439 29.947624 
1.688941 47.537518 0.410579 21.417902 3.018717 -0.837675 0.000000 0.000000 0.000000 -7.676291 0.658112 6.688649 4.624247 2.688981 0.169945 -8.418206 -6.352156 -3.187020 1.520426 30.000000 23.589729 -93.360374 -5.191720 0.125917 -58.752808 -18.512959 91.004616 -22.960655 -8.335015 -53.928356 -16.394581 -22.825525 17.514254 58.405910 -1.769488 65.404816 82.849525 -41.723145 75.710007 39.478844 8.940089 -79.436539 -61.911285 8.212342 9.966416 127.861031 9.360142 -0.521576 25.784216 -8.242330 -12.335386 -21.189636 0.039449 1.896744 27.842798 -0.268184 1.443696 25.556595 -9.681749 21.697178 
1.747287 48.774380 0.449624 22.617916 3.308978 -2.264479 0.000000 0.000000 0.000000 -8.937607 1.225180 6.819096 5.285314 1.615164 0.092488 -8.462951 -5.920748 -2.005142 2.355951 28.698372 23.260454 -91.233070 -3.597323 -0.977152 -59.501686 -18.570072 90.212746 -22.646284 -8.305795 -54.012981 -15.517014 -21.918892 18.148687 58.872681 -0.866163 65.573547 82.370346 -44.661629 79.247208 39.518784 11.645510 -78.995506 -60.947361 9.385117 10.550686 128.977692 8.673434 -0.649145 20.877123 -5.811509 -1.753288 -23.725088 0.039079 2.016394 28.755827 0.551822 1.711011 24.899797 -10.437011 12.923665 
1.743286 49.457050 0.614839 21.056414 2.515578 -3.767896 0.000000 0.000000 0.000000 -7.009410 2.636426 7.127481 5.127447 0.791734 0.033070 -8.348617 -5.718633 -1.444757 2.816305 28.454733 23.037352 -90.502876 -2.914925 -1.367319 -59.337349 -19.450888 89.090103 -21.833473 -6.951317 -54.787254 -15.482765 -22.472036 18.010153 61.283798 0.222543 66.930550 80.268120 -47.946747 80.588989 39.223843 13.957935 -78.534210 -57.382229 10.654331 11.861641 129.788315 9.552291 -0.394185 21.938635 -5.769489 -8.323171 -25.038446 0.351538 2.167712 34.620419 3.097506 2.827445 22.535011 -9.912994 16.158890 
1.859502 49.521309 0.735062 19.620987 2.621827 -4.065374 0.000000 0.000000 0.000000 -4.977306 2.947846 7.185134 4.560566 0.161107 -0.015739 -8.460712 -6.154454 -1.621413 1.882774 28.345278 23.524670 -90.693657 -3.159267 -1.259872 -58.595108 -18.664061 87.441635 -20.868925 -6.685136 -55.077633 -16.066753 -22.650616 17.701956 62.927528 1.055913 67.834305 78.334572 -49.989418 81.199997 39.396255 14.818568 -78.373062 -54.356682 10.084318 12.480389 130.646042 9.223765 -0.441009 21.775211 -5.207391 -13.799647 -26.100075 -0.048617 2.093242 39.172096 4.299726 3.515106 21.272686 -9.741197 16.904785 
1.908794 49.078785 0.610017 20.368671 2.298076 -4.303228 0.000000 0.000000 0.000000 -4.706681 3.620595 7.339422 3.261761 -0.287127 -0.045129 -8.473358 -5.939109 -1.851948 0.983004 29.378191 23.948822 -91.875870 -3.717941 -0.634892 -58.145947 -17.460381 85.599625 -20.429415 -6.601881 -55.189922 -16.852886 -23.441362 17.124031 64.714188 1.508796 68.899849 78.263000 -51.540440 83.148598 39.484818 16.293831 -78.015862 -54.785347 10.224961 12.406892 131.114517 9.307916 -0.426393 25.682177 -8.099001 -19.740507 -29.409184 0.780837 2.499318 43.567013 4.198899 3.927951 17.452957 -7.208906 16.430035 
1.987779 48.073963 0.452670 21.228918 2.303231 -4.164143 0.000000 0.000000 0.000000 -4.532022 3.903810 7.395941 2.295046 -0.591311 -0.062186 -8.973226 -5.596912 -1.844536 -0.220084 29.031763 24.575100 -91.974358 -5.580931 -0.610127 -56.406090 -16.048647 83.678596 -20.066042 -6.872775 -55.169533 -16.997866 -23.119635 17.160927 65.810776 1.961853 69.513191 77.175385 -52.942436 82.681015 40.048126 15.555273 -78.241570 -55.289574 9.881675 12.193813 131.560562 8.852225 -0.492892 23.930309 -7.597177 -20.270153 -32.894688 1.434713 2.873219 47.276199 3.619328 4.152761 14.659796 -7.304540 16.101681 
2.033300 46.666840 0.337613 21.837667 1.813069 -3.667879 0.000000 0.000000 0.000000 -4.309723 4.421107 7.518954 1.230552 -0.651687 -0.062230 -9.257938 -5.597394 -2.184097 -1.546822 30.000000 25.000000 -93.837006 -7.230383 0.352169 -55.438549 -14.770989 82.628517 -19.982939 -6.439947 -55.379875 -17.718475 -23.434572 16.738253 66.285606 1.365581 69.934433 78.848740 -53.075989 83.815231 40.032112 14.959460 -78.377380 -56.583576 9.957656 11.876086 131.001114 9.055779 -0.456146 26.113684 -7.901393 -23.724522 -36.155827 1.776320 3.156943 51.512100 4.312427 4.704277 12.433588 -7.871650 17.648983 
2.063862 44.669605 0.217026 22.496677 1.335368 -2.650078 0.000000 0.000000 0.000000 -4.320979 4.664497 7.568244 0.156256 -0.376936 -0.039699 -9.920008 -6.012015 -3.147260 -2.771887 30.000000 25.000000 -96.898033 -9.165759 1.876335 -53.971554 -14.104406 80.867546 -19.560993 -5.320969 -55.967972 -18.519367 -24.178192 16.136753 66.434296 -0.165747 70.329926 81.741112 -52.476387 84.321350 40.422352 12.910916 -78.879173 -58.984653 9.849674 11.217319 131.357330 9.533393 -0.354107 25.746799 -7.236545 -22.683027 -39.781818 1.308289 3.201741 57.278755 6.090240 5.657886 6.165418 -8.199947 15.200139 
